<?xml version="1.0" standalone="no"?>
<!DOCTYPE svg PUBLIC "-//W3C//DTD SVG 20010904//EN"
 "http://www.w3.org/TR/2001/REC-SVG-20010904/DTD/svg10.dtd">
<svg version="1.0" xmlns="http://www.w3.org/2000/svg"
 width="1024.000000pt" height="1024.000000pt" viewBox="0 0 1024.000000 1024.000000"
 preserveAspectRatio="xMidYMid meet">
<metadata>
Created by potrace 1.11, written by Peter Selinger 2001-2013
</metadata>
<g transform="translate(0.000000,1024.000000) scale(0.100000,-0.100000)"
fill="#000000" stroke="none">
<path d="M0 5120 l0 -5120 5120 0 5120 0 0 5120 0 5120 -5120 0 -5120 0 0
-5120z m4062 2153 l177 -178 -176 -177 -176 -178 -671 0 -671 0 -348 355 -349
355 1019 0 1018 0 177 -177z m3998 -178 l-355 -355 -670 0 -670 0 -205 208
c-113 114 -270 273 -350 355 l-145 147 1375 0 1375 0 -355 -355z m-5650 -967
l0 -486 -220 -224 -219 -223 -130 135 -130 135 0 925 -1 925 350 -350 350
-350 0 -487z m3820 -3 l-1 -480 -220 -225 -219 -225 -135 140 -135 140 0 920
0 920 355 -355 355 -355 0 -480z m2309 263 l0 -923 -130 -135 -130 -135 -220
222 -219 223 0 487 0 488 347 347 c192 192 349 348 350 348 2 0 3 -415 2 -922z
m-3987 395 l178 -178 0 -565 0 -565 -135 -140 -135 -140 -220 225 -220 225 0
485 0 485 172 172 c95 95 175 173 178 173 3 0 85 -80 182 -177z m2868 -1263
l0 -696 -177 -183 -176 -183 -184 184 -183 183 0 696 0 697 182 177 181 177
179 -179 178 -178 0 -695z m-3267 -278 l177 -177 -178 -178 -177 -177 -755 0
-755 0 -177 177 -178 178 177 177 178 178 755 0 755 0 178 -178z m-1743 -1302
l0 -555 -350 -350 -350 -350 0 990 0 990 132 132 133 133 217 -217 218 -218 0
-555z m3820 -5 l0 -550 -347 -347 c-192 -192 -351 -348 -355 -348 -5 0 -8 444
-8 987 l0 986 132 134 132 133 223 -222 223 -223 0 -550z m2310 -260 l0 -990
-350 350 -350 350 0 555 0 555 217 217 218 218 132 -132 133 -133 0 -990z"/>
</g>
</svg>
